<svg width="63" height="161" viewBox="0 0 63 161" fill="none" xmlns="http://www.w3.org/2000/svg">
<path d="M60.1268 0.5H2.5C1.39543 0.5 0.5 1.39544 0.5 2.5V157.609C0.5 158.714 1.39543 159.609 2.5 159.609H60.1268C61.2313 159.609 62.1268 158.714 62.1268 157.609V2.5C62.1268 1.39543 61.2313 0.5 60.1268 0.5Z" fill="#617485" stroke="#3A444F"/>
<path d="M42.4663 125.828H19.2734V147.043H42.4663V125.828Z" fill="#05D737"/>
<path d="M55.4866 29.8125H7.55469V105.18H55.4866V29.8125Z" fill="#384152"/>
<path d="M14.1953 98.5821V50.3672H48.6399V98.5821H14.1953Z" fill="#455063"/>
<path d="M48.6399 34.8828H14.1953V43.257H48.6399V34.8828Z" fill="#128587"/>
<path d="M19.6251 3.36719H15.375V8.38013H19.6251V3.36719Z" fill="#BCC2CD"/>
<path d="M26.0001 3.42969H21.75V8.44263H26.0001V3.42969Z" fill="#BCC2CD"/>
<path d="M32.3673 3.42969H28.1172V8.44263H32.3673V3.42969Z" fill="#BCC2CD"/>
<path d="M10.4688 1.39312V12.5519H52.7982V1.38291" stroke="#475462" stroke-width="3"/>
</svg>
